<svg viewBox="0 0 450 350" xmlns="http://www.w3.org/2000/svg">
  <path fill="#1c4c74" d="M330,40c-39,0-72.2,22-89.9,53.8C222.4,62,189.2,40,150,40C83.7,40,30,93.7,30,160s53.7,120,120,120 c44.5,0,83.4-24.3,103.5-60.8c2.9-5.3,5.4-10.8,7.3-16.5c-0.2,1.3-0.5,2.6-0.8,3.9c-2,8-4.7,15.8-8,23.3 C231.9,266.6,193.1,291,150,291c-72.3,0-131-58.7-131-131S77.7,29,150,29c41,0,77.5,18.8,102.1,48.4 C276.6,47.8,313.1,29,354,29c72.3,0,131,58.7,131,131s-58.7,131-131,131c-43.1,0-81.9-24.4-102-60.9c-3.3-7.5-6-15.3-8-23.3 c-0.3-1.3-0.6-2.6-0.8-3.9c1.9,5.7,4.4,11.2,7.3,16.5c20.1,36.5,59,60.8,103.5,60.8c66.3,0,120-53.7,120-120S420.3,40,354,40 M150,227 c-37,0-67-30-67-67s30-67,67-67s67,30,67,67S187,227,150,227 M354,227c-37,0-67-30-67-67s30-67,67-67s67,30,67,67S391,227,354,227"/>
  <path fill="#1c4c74" d="M380,210 c0,15 -180,50 -230,50 c-50,0 -230,-35 -230,-50 c0,10 180,60 230,60 c50,0 230,-50 230,-60 z" /> <!-- Smile arc base -->
  <!-- Manual SVG text layout for Taboola -->
</svg>
